<svg width="11" height="11" viewBox="0 0 11 11" fill="none" xmlns="http://www.w3.org/2000/svg">
<path d="M6.6646 0.979413L7.5445 2.75376C7.66449 3.00076 7.98445 3.23767 8.25442 3.28304L9.84925 3.5502C10.8691 3.72159 11.1091 4.46762 10.3742 5.20357L9.13433 6.45368C8.92435 6.66539 8.80936 7.07369 8.87435 7.36606L9.22932 8.91357C9.50928 10.1385 8.86436 10.6123 7.78947 9.97213L6.29464 9.07992C6.02467 8.91861 5.57972 8.91861 5.30475 9.07992L3.80992 9.97213C2.74003 10.6123 2.0901 10.1334 2.37007 8.91357L2.72503 7.36606C2.79003 7.07369 2.67504 6.66539 2.46506 6.45368L1.2252 5.20357C0.495281 4.46762 0.730255 3.72159 1.75014 3.5502L3.34497 3.28304C3.60994 3.23767 3.9299 3.00076 4.04989 2.75376L4.92979 0.979413C5.40974 0.0166278 6.18965 0.0166278 6.6646 0.979413Z" fill="#FEDC48"/>
</svg>
